<?xml version="1.0" encoding="utf-8"?>
<!-- Generator: Adobe Illustrator 21.0.2, SVG Export Plug-In . SVG Version: 6.00 Build 0)  -->
<svg version="1.1" id="Layer_1" xmlns="http://www.w3.org/2000/svg" xmlns:xlink="http://www.w3.org/1999/xlink" x="0px" y="0px"
	 viewBox="0 0 160 320" style="enable-background:new 0 0 160 320;" xml:space="preserve">
<style type="text/css">
	.st0{clip-path:url(#SVGID_2_);fill:#00CEAF;}
	.st1{clip-path:url(#SVGID_4_);fill:#00CEAF;}
	.st2{clip-path:url(#SVGID_6_);fill:#00CEAF;}
	.st3{clip-path:url(#SVGID_8_);fill:#00CEAF;}
	.st4{clip-path:url(#SVGID_10_);fill:#00CEAF;}
	.st5{clip-path:url(#SVGID_12_);fill:#FAFCD6;}
	.st6{clip-path:url(#SVGID_14_);fill:#FAFCD6;}
</style>
<g>
	<g>
		<defs>
			<rect id="SVGID_1_" width="160" height="320"/>
		</defs>
		<clipPath id="SVGID_2_">
			<use xlink:href="#SVGID_1_"  style="overflow:visible;"/>
		</clipPath>
		<polygon class="st0" points="80,80 30,140 65,130 15,190 50,180 0,240 160,240 110,180 145,190 95,130 130,140 		"/>
	</g>
	<g>
		<defs>
			<rect id="SVGID_3_" width="160" height="320"/>
		</defs>
		<clipPath id="SVGID_4_">
			<use xlink:href="#SVGID_3_"  style="overflow:visible;"/>
		</clipPath>
		<polygon class="st1" points="160,-80 110,-20 145,-30 95,30 130,20 80,80 240,80 190,20 225,30 175,-30 210,-20 		"/>
	</g>
	<g>
		<defs>
			<rect id="SVGID_5_" width="160" height="320"/>
		</defs>
		<clipPath id="SVGID_6_">
			<use xlink:href="#SVGID_5_"  style="overflow:visible;"/>
		</clipPath>
		<polygon class="st2" points="0,-80 -50,-20 -15,-30 -65,30 -30,20 -80,80 80,80 30,20 65,30 15,-30 50,-20 		"/>
	</g>
	<g>
		<defs>
			<rect id="SVGID_7_" width="160" height="320"/>
		</defs>
		<clipPath id="SVGID_8_">
			<use xlink:href="#SVGID_7_"  style="overflow:visible;"/>
		</clipPath>
		<polygon class="st3" points="160,240 110,300 145,290 95,350 130,340 80,400 240,400 190,340 225,350 175,290 210,300 		"/>
	</g>
	<g>
		<defs>
			<rect id="SVGID_9_" width="160" height="320"/>
		</defs>
		<clipPath id="SVGID_10_">
			<use xlink:href="#SVGID_9_"  style="overflow:visible;"/>
		</clipPath>
		<polygon class="st4" points="0,240 -50,300 -15,290 -65,350 -30,340 -80,400 80,400 30,340 65,350 15,290 50,300 		"/>
	</g>
	<g>
		<defs>
			<rect id="SVGID_11_" width="160" height="320"/>
		</defs>
		<clipPath id="SVGID_12_">
			<use xlink:href="#SVGID_11_"  style="overflow:visible;"/>
		</clipPath>
		<polygon class="st5" points="240,80 190,140 225,130 175,190 210,180 160,240 320,240 270,180 305,190 255,130 290,140 		"/>
	</g>
	<g>
		<defs>
			<rect id="SVGID_13_" width="160" height="320"/>
		</defs>
		<clipPath id="SVGID_14_">
			<use xlink:href="#SVGID_13_"  style="overflow:visible;"/>
		</clipPath>
		<polygon class="st6" points="-80,80 -130,140 -95,130 -145,190 -110,180 -160,240 0,240 -50,180 -15,190 -65,130 -30,140 		"/>
	</g>
</g>
</svg>
